<svg id="visual" viewBox="0 0 960 540" width="960" height="540" xmlns="http://www.w3.org/2000/svg" xmlns:xlink="http://www.w3.org/1999/xlink" version="1.1"><path d="M0 55L16 55C32 55 64 55 96 54.2C128 53.3 160 51.7 192 52.5C224 53.3 256 56.7 288 54.8C320 53 352 46 384 45.2C416 44.3 448 49.7 480 50.5C512 51.3 544 47.7 576 45C608 42.3 640 40.7 672 42.5C704 44.3 736 49.7 768 50.5C800 51.3 832 47.7 864 48.5C896 49.3 928 54.7 944 57.3L960 60L960 0L944 0C928 0 896 0 864 0C832 0 800 0 768 0C736 0 704 0 672 0C640 0 608 0 576 0C544 0 512 0 480 0C448 0 416 0 384 0C352 0 320 0 288 0C256 0 224 0 192 0C160 0 128 0 96 0C64 0 32 0 16 0L0 0Z" fill="#313131"></path><path d="M0 158L16 151.7C32 145.3 64 132.7 96 126.3C128 120 160 120 192 126.3C224 132.7 256 145.3 288 150.7C320 156 352 154 384 147.7C416 141.3 448 130.7 480 124.3C512 118 544 116 576 118.7C608 121.3 640 128.7 672 128.7C704 128.7 736 121.3 768 125.8C800 130.3 832 146.7 864 146.7C896 146.7 928 130.3 944 122.2L960 114L960 58L944 55.3C928 52.7 896 47.3 864 46.5C832 45.7 800 49.3 768 48.5C736 47.7 704 42.3 672 40.5C640 38.7 608 40.3 576 43C544 45.7 512 49.3 480 48.5C448 47.7 416 42.3 384 43.2C352 44 320 51 288 52.8C256 54.7 224 51.3 192 50.5C160 49.7 128 51.3 96 52.2C64 53 32 53 16 53L0 53Z" fill="#2b2b2b"></path><path d="M0 201L16 197.3C32 193.7 64 186.3 96 179.2C128 172 160 165 192 172.2C224 179.3 256 200.7 288 210.5C320 220.3 352 218.7 384 212.5C416 206.3 448 195.7 480 189.3C512 183 544 181 576 185.5C608 190 640 201 672 198.3C704 195.7 736 179.3 768 180.2C800 181 832 199 864 202.7C896 206.3 928 195.7 944 190.3L960 185L960 112L944 120.2C928 128.3 896 144.7 864 144.7C832 144.7 800 128.3 768 123.8C736 119.3 704 126.7 672 126.7C640 126.7 608 119.3 576 116.7C544 114 512 116 480 122.3C448 128.7 416 139.3 384 145.7C352 152 320 154 288 148.7C256 143.3 224 130.7 192 124.3C160 118 128 118 96 124.3C64 130.7 32 143.3 16 149.7L0 156Z" fill="#252525"></path><path d="M0 298L16 302.5C32 307 64 316 96 326.8C128 337.7 160 350.3 192 354C224 357.7 256 352.3 288 345.2C320 338 352 329 384 323.5C416 318 448 316 480 321.3C512 326.7 544 339.3 576 340.3C608 341.3 640 330.7 672 318C704 305.3 736 290.7 768 302.3C800 314 832 352 864 366.5C896 381 928 372 944 367.5L960 363L960 183L944 188.3C928 193.7 896 204.3 864 200.7C832 197 800 179 768 178.2C736 177.3 704 193.7 672 196.3C640 199 608 188 576 183.5C544 179 512 181 480 187.3C448 193.7 416 204.3 384 210.5C352 216.7 320 218.3 288 208.5C256 198.7 224 177.3 192 170.2C160 163 128 170 96 177.2C64 184.3 32 191.7 16 195.3L0 199Z" fill="#1f1f1f"></path><path d="M0 455L16 461.2C32 467.3 64 479.7 96 481.3C128 483 160 474 192 475C224 476 256 487 288 488C320 489 352 480 384 476.3C416 472.7 448 474.3 480 473.3C512 472.3 544 468.7 576 465.2C608 461.7 640 458.3 672 458.3C704 458.3 736 461.7 768 466.2C800 470.7 832 476.3 864 476.3C896 476.3 928 470.7 944 467.8L960 465L960 361L944 365.5C928 370 896 379 864 364.5C832 350 800 312 768 300.3C736 288.7 704 303.3 672 316C640 328.7 608 339.3 576 338.3C544 337.3 512 324.7 480 319.3C448 314 416 316 384 321.5C352 327 320 336 288 343.2C256 350.3 224 355.7 192 352C160 348.3 128 335.7 96 324.8C64 314 32 305 16 300.5L0 296Z" fill="#191919"></path><path d="M0 541L16 541C32 541 64 541 96 541C128 541 160 541 192 541C224 541 256 541 288 541C320 541 352 541 384 541C416 541 448 541 480 541C512 541 544 541 576 541C608 541 640 541 672 541C704 541 736 541 768 541C800 541 832 541 864 541C896 541 928 541 944 541L960 541L960 463L944 465.8C928 468.7 896 474.3 864 474.3C832 474.3 800 468.7 768 464.2C736 459.7 704 456.3 672 456.3C640 456.3 608 459.7 576 463.2C544 466.7 512 470.3 480 471.3C448 472.3 416 470.7 384 474.3C352 478 320 487 288 486C256 485 224 474 192 473C160 472 128 481 96 479.3C64 477.7 32 465.3 16 459.2L0 453Z" fill="#131313"></path></svg>